<svg xmlns="http://www.w3.org/2000/svg" viewBox="0 0 64 64" role="img" aria-label="AgentWing">
  <rect width="64" height="64" rx="14" fill="#05070d"/>
  <path d="M32 10 48 18v12c0 10.8-6.2 18.9-16 24-9.8-5.1-16-13.2-16-24V18l16-8Z" fill="#07131d" stroke="#22d3ee" stroke-width="3"/>
  <path d="M22 31c0-6.1 4.4-11 10-11s10 4.9 10 11-4.4 11-10 11-10-4.9-10-11Z" fill="none" stroke="#67e8f9" stroke-width="3"/>
  <path d="M32 20v22M22 31h20M26 23.5l12 15M38 23.5l-12 15" stroke="#22d3ee" stroke-width="2" stroke-linecap="round" opacity=".85"/>
  <circle cx="32" cy="31" r="3.5" fill="#a5f3fc"/>
</svg>
